<?xml version="1.0" encoding="utf-8"?>
<!-- Generator: Adobe Illustrator 27.5.0, SVG Export Plug-In . SVG Version: 6.00 Build 0)  -->
<svg version="1.1" xmlns="http://www.w3.org/2000/svg" xmlns:xlink="http://www.w3.org/1999/xlink" x="0px" y="0px"
	 viewBox="0 0 1270 1270" style="enable-background:new 0 0 1270 1270;" xml:space="preserve">
<g id="background">
	<g>
		<g>
			<rect x="0.458" y="0.458" style="fill:#FFFFFF;" width="1270" height="1270"/>
		</g>
	</g>
</g>
<g id="shadow">
	<path style="opacity:0.1;fill:#272525;" d="M535.492,1172.535c14.413,11.065,38.531-6.179,58.474-4.145
		c19.247,1.963,34.569,21.935,53.679,15.054c10.772-3.879,15.985-14.547,20.586-23.898c21.736-44.185,56.315-83.254,90.494-121.736
		c22.513-25.347,47.418-52.257,83.186-63.761c78.872-25.367,162.248,37.518,252.097,19.947
		c21.459-4.196,41.696-13.042,57.434-25.156c13.143-10.116,23.05-22.394,28.818-35.433c20.168-45.588-19.149-95.446-79.217-103.779
		c42.183-44.049,21.683-105.754-38.183-122.058c-26.462-7.207-57.157-6.265-86.561-2.977
		c-37.146,4.153-102.762,16.521-127.796,40.685c-11.697,11.29-21.408,24.658-37.449,31.813c-18.918,8.437-39.702,5.273-59.503,7.076
		c-38.181,3.476-76.539,28.944-88.895,58.753c-15.786,38.085,9.84,52.948,35.589,74.403c25.845,21.534-8.302,57.012-27.787,81.89
		c-25.998,33.193-45.599,69.759-74.579,101.658C583.741,1114.23,512.057,1154.543,535.492,1172.535z"/>
</g>
<g id="object">
	<g>
		<g>
			<polygon style="fill:#414446;" points="696.301,683.288 698.609,882.908 660.992,1140.289 632.068,1140.289 613.799,902.801 
				574.218,665.313 			"/>
			<polygon style="fill:#426362;" points="632.234,1152.486 663.513,1168.125 679.153,1152.486 659,1136.847 632.234,1136.847 			
				"/>
		</g>
		<g>
			<polygon style="fill:#414446;" points="518.141,683.288 517.573,798.775 553.45,1140.289 582.375,1140.289 614.393,913.525 
				640.225,665.313 			"/>
			<polygon style="fill:#426362;" points="582.208,1152.486 550.929,1168.125 535.29,1152.486 550.929,1136.847 582.208,1136.847 
							"/>
		</g>
		<g>
			<path style="fill:#EACDB0;" d="M602.425,462.537c-9.015,0.059-18.029,0.118-27.044,0.177c-0.843-7.14-1.114-14.347-0.81-21.53
				c-7.712-1.828-16.719-4.84-18.837-12.477c-0.667-2.406-0.509-4.953-0.345-7.444c0.678-10.298,1.356-20.596,2.033-30.894
				c0.234-3.562,0.497-7.23,2.082-10.428c2.782-5.612,9.016-8.598,15.04-10.312c15.373-4.375,32.797-2.788,46.024,6.185
				c3.52,2.388,6.79,5.361,8.636,9.193c2.846,5.909,1.92,12.857,0.931,19.34c-0.913,5.985-1.826,11.969-2.739,17.954
				c-1.05,6.883-2.784,14.765-8.971,17.959c-3.285,1.696-7.371,1.734-10.265,4.035C603.057,448.354,604.655,456.41,602.425,462.537z
				"/>
			<path style="fill:#3A3029;" d="M682.14,352.12c1.271-2.689,2.67-5.301,4.283-7.782c3.492-5.375,7.991-10.143,10.641-15.98
				c2.65-5.837,2.999-13.406-1.413-18.056c-2.847-3.001-7.081-4.204-11.15-4.948c-13.409-2.451-27.472-1.226-40.255,3.507
				c-12.176,4.509-22.816,10.968-35.91,7.596c-12.303-3.168-20.66-0.463-32.562,5.259c-12.88,6.192-30.73,9.219-42.133,17.243
				c-4.762,3.351-8.334,8.178-10.966,13.371c-9.121,17.992-6.726,41.217,5.876,56.969c2.827,3.534,6.097,6.691,9.498,9.677
				c7.039,6.181,15.488,13.84,24.443,15.459c-0.615-7.793-10.286-31.548-4.991-38.548c8.402-11.109,30.189-9.848,42.202-8.602
				c13.103,1.359,25.486,9.226,38.397,9.821c9.29,0.428,20.485-5.29,27.76-10.838C674.835,379.417,677.502,361.932,682.14,352.12z"
				/>
		</g>
		<path style="fill:#E89F40;" d="M481.77,715.494c-0.399,18.213,0.174,42.758,7.17,43.656c1.311,0.168,2.568-0.48,3.714-1.105
			c12.099-6.606,20.659-15.903,32.585-22.285c12.5-6.689,26.8-10.244,40.823-12.732c20.97-3.832,42.404-6.208,63.769-6.581
			c23.198-0.405,68.36,4.158,68.36,4.158c13.039-2.192,25.498-6.684,37.988-10.849c21.46-7.157,43.375-13.462,63.512-23.487
			c6.461-3.217,24.287-12.722,17.916-21.326c-4.823-6.514-21.207-10.875-28.591-14.877c-16.493-8.939-32.346-19.144-46.306-31.399
			c-19.84-17.418-34.48-38.784-43.644-62.849c-4.626-12.148-7.961-24.702-10.715-37.337c-1.492-6.844-2.802-13.722-4.029-20.612
			c-0.697-3.913-0.689-18.715-3.549-21.172c-29.003-24.917-37.493-46.479-72.651-41.314c-57.081,8.386-74.447,15.959-92.324,55.223
			c-7.189,15.788-16.932,58.179-19.681,75.151c-3.329,20.555-6.41,41.152-8.807,61.825c-2.675,23.07-4.512,46.244-4.9,69.456
			C482.368,699.616,481.959,706.84,481.77,715.494z"/>
		<g>
			<g>
				<path style="fill:#6596C1;" d="M844.78,273.771c-30.87-41.223-89.554-57.612-140.76-40.883
					c-0.095,0.031-0.191,0.043-0.287,0.065c-15.643,6.556-28.28,18.021-32.858,35.013c-1.006,3.733-7.313,2.617-6.3-1.143
					c4.907-18.213,17.946-30.765,34.302-38.208c-22.201-52.397-80.83-86.445-141.957-77.824
					c-60.155,8.484-106.225,54.63-114.005,110.157c5.159,0.756,10.259,1.952,15.239,3.652c19.806,6.761,35.73,19.722,47.553,35.759
					c2.338,3.172-2.994,6.567-5.325,3.405c-3.89-5.277-8.326-10.209-13.277-14.652c-18.376-16.49-43.584-25.293-69.286-22.383
					c-25.969,2.941-53.116,17.872-69.386,36.808c-18.646,21.701-27.525,49.88-22.872,77.298
					c4.567,26.911,21.551,51.095,46.239,65.703c22.899,13.549,48.767,18.604,75.803,17.632c17.729-0.638,35.449-1.669,53.159-2.711
					c50.623-2.976,101.222-6.407,151.813-9.898c22.226-1.534,44.451-3.09,66.674-4.664c18.255-1.293,37.563-1.31,55.316-5.815
					c58.055-14.731,98.987-68.001,89.092-124.044C860.912,301.498,854.427,286.653,844.78,273.771z"/>
			</g>
			<g style="opacity:0.08;">
				<path d="M863.657,317.039c-2.744-15.541-9.229-30.386-18.876-43.269c-7.732-10.324-17.209-19.09-27.875-26.169
					c2.762,3.1,5.431,6.284,7.98,9.573c9.452,12.195,13.996,26.632,14.811,41.964c1.707,32.124-10.752,63.031-39.184,79.809
					c-27.886,16.456-58.164,30.29-89.299,36.134c-81.746,15.345-169.273,23.077-252.21,29.883
					c-26.47,2.195-51.398,2.391-83.712,2.686c-0.263,0.002-0.441,0.312-0.665,0.483c22.194,12.335,47.045,16.97,72.976,16.037
					c17.73-0.638,35.449-1.669,53.16-2.711c50.623-2.976,101.222-6.407,151.813-9.898c22.226-1.534,44.451-3.09,66.674-4.664
					c18.255-1.293,37.563-1.31,55.316-5.815C832.62,426.352,873.552,373.082,863.657,317.039z"/>
			</g>
		</g>
		<g>
			<polygon style="fill:#EACDB0;" points="745.13,400.382 749.087,384.964 741.751,372.996 743.498,370.154 747.084,372.162 
				743.839,360.486 747.855,351.507 760.683,348.908 772.787,354.937 774.017,367.948 767.541,382.076 763.038,403.416 			"/>
			<polygon style="fill:#E89F40;" points="739.075,383.948 725.326,483.582 635.909,456.917 650.252,541.784 765.625,537.541 
				769.216,391.386 			"/>
		</g>
		<g>
			<polygon style="fill:#EACDB0;" points="468.709,467.49 463.185,452.462 469.312,439.741 467.276,437.074 463.89,439.448 
				465.953,427.434 461.023,418.856 447.922,417.556 436.421,424.819 436.51,437.964 444.425,451.445 451.096,472.344 			"/>
			<polygon style="fill:#E89F40;" points="472.363,456.691 487.69,514.292 540.284,462.894 551.042,553.737 467.37,588.401 
				439.442,456.917 			"/>
		</g>
		<g>
			<polygon style="fill:#415B59;" points="548.325,424.906 517.458,486.875 674.427,532.17 679.112,490.78 			"/>
			<polygon style="fill:#426362;" points="629.568,435.531 593.164,447.49 536.256,492.299 529.737,750.832 633.602,735.995 
				609.393,516.551 664.276,483.307 679.112,465.79 			"/>
		</g>
	</g>
</g>
</svg>
